<?xml version="1.0" encoding="utf-8"?>
<!-- Generator: Adobe Illustrator 16.0.0, SVG Export Plug-In . SVG Version: 6.00 Build 0)  -->
<!DOCTYPE svg PUBLIC "-//W3C//DTD SVG 1.1//EN" "http://www.w3.org/Graphics/SVG/1.1/DTD/svg11.dtd">
<svg version="1.1" id="Layer_1" xmlns="http://www.w3.org/2000/svg" xmlns:xlink="http://www.w3.org/1999/xlink" x="0px" y="0px"
	 width="28.469px" height="48px" viewBox="163.692 276.164 28.469 48" enable-background="new 163.692 276.164 28.469 48"
	 xml:space="preserve">
<g>
	<path d="M192.161,284.465v31.32c0,5.585-3.172,8.378-9.515,8.378h-9.364c-6.394,0-9.59-2.793-9.59-8.378v-31.32
		c0-5.534,3.197-8.302,9.59-8.302h9.364C188.989,276.164,192.161,278.931,192.161,284.465z M181.362,314.352v-28.377
		c0-1.257-0.68-1.887-2.039-1.887h-2.793c-1.359,0-2.039,0.63-2.039,1.887v28.377c0,1.258,0.68,1.887,2.039,1.887h2.793
		C180.683,316.239,181.362,315.61,181.362,314.352z"/>
</g>
</svg>
