<?xml version="1.0" encoding="utf-8"?>
<!-- Generator: Adobe Illustrator 16.0.0, SVG Export Plug-In . SVG Version: 6.00 Build 0)  -->
<!DOCTYPE svg PUBLIC "-//W3C//DTD SVG 1.1//EN" "http://www.w3.org/Graphics/SVG/1.1/DTD/svg11.dtd">
<svg version="1.1" id="Layer_1" xmlns="http://www.w3.org/2000/svg" xmlns:xlink="http://www.w3.org/1999/xlink" x="0px" y="0px"
	 width="27.472px" height="48px" viewBox="157.962 276 27.472 48" enable-background="new 157.962 276 27.472 48"
	 xml:space="preserve">
<g>
	<path d="M168.755,285.812v6.339h-10.792v-7.849c0-5.534,3.17-8.302,9.509-8.302h8.302c6.44,0,9.661,2.768,9.661,8.302v6.113
		c0,2.315-0.339,4.315-1.019,6c-0.679,1.687-1.924,3.535-3.434,5.547l-9.66,14.113h14.113V324h-27.245v-7.32l13.283-17.812
		c1.257-1.559,2.101-2.943,2.528-4.151c0.427-1.207,0.642-2.691,0.642-4.453v-4.453c0-1.257-0.679-1.887-2.038-1.887h-1.887
		C169.408,283.924,168.755,284.554,168.755,285.812z"/>
</g>
</svg>
