<?xml version="1.0" encoding="utf-8"?>
<!-- Generator: Adobe Illustrator 16.0.0, SVG Export Plug-In . SVG Version: 6.00 Build 0)  -->
<!DOCTYPE svg PUBLIC "-//W3C//DTD SVG 1.1//EN" "http://www.w3.org/Graphics/SVG/1.1/DTD/svg11.dtd">
<svg version="1.1" id="Layer_1" xmlns="http://www.w3.org/2000/svg" xmlns:xlink="http://www.w3.org/1999/xlink" x="0px" y="0px"
	 width="27.472px" height="48px" viewBox="157.644 275.441 27.472 48" enable-background="new 157.644 275.441 27.472 48"
	 xml:space="preserve">
<g>
	<path d="M168.36,285.253v5.66h-10.717v-7.17c0-5.534,3.17-8.302,9.509-8.302h8.377c6.389,0,9.585,2.768,9.585,8.302v8.227
		c0,3.724-1.132,6.063-3.396,7.019c2.264,0.856,3.396,3.019,3.396,6.491v9.585c0,5.584-3.196,8.377-9.585,8.377h-8.377
		c-6.339,0-9.509-2.793-9.509-8.377v-7.02h10.717v5.585c0,1.259,0.679,1.887,2.038,1.887h2.038c1.358,0,2.038-0.628,2.038-1.887
		v-8.905c0-0.704-0.151-1.195-0.453-1.472c-0.302-0.276-0.83-0.415-1.585-0.415h-5.887v-7.472h5.887
		c0.755,0,1.283-0.138,1.585-0.415c0.302-0.276,0.453-0.742,0.453-1.396v-8.302c0-1.257-0.679-1.887-2.038-1.887h-2.038
		C169.04,283.366,168.36,283.996,168.36,285.253z"/>
</g>
</svg>
