<?xml version="1.0" encoding="utf-8"?>
<!-- Generator: Adobe Illustrator 16.0.0, SVG Export Plug-In . SVG Version: 6.00 Build 0)  -->
<!DOCTYPE svg PUBLIC "-//W3C//DTD SVG 1.1//EN" "http://www.w3.org/Graphics/SVG/1.1/DTD/svg11.dtd">
<svg version="1.1" id="Layer_1" xmlns="http://www.w3.org/2000/svg" xmlns:xlink="http://www.w3.org/1999/xlink" x="0px" y="0px"
	 width="28.377px" height="48px" viewBox="155.63 263.246 28.377 48" enable-background="new 155.63 263.246 28.377 48"
	 xml:space="preserve">
<g>
	<path d="M166.196,282.943h8.227c6.389,0,9.584,2.768,9.584,8.302v11.623c0,5.585-3.195,8.378-9.584,8.378h-9.208
		c-6.39,0-9.584-2.793-9.584-8.378v-31.321c0-5.534,3.194-8.302,9.584-8.302h9.208c6.389,0,9.584,2.768,9.584,8.302v6.491h-10.565
		v-4.981c0-1.257-0.68-1.887-2.038-1.887h-3.246c-1.309,0-1.962,0.63-1.962,1.887V282.943z M173.441,301.435v-8.981
		c0-1.257-0.679-1.887-2.038-1.887h-5.208v10.868c0,1.258,0.653,1.886,1.962,1.886h3.246
		C172.762,303.32,173.441,302.692,173.441,301.435z"/>
</g>
</svg>
