<?xml version="1.0" encoding="utf-8"?>
<!-- Generator: Adobe Illustrator 16.0.0, SVG Export Plug-In . SVG Version: 6.00 Build 0)  -->
<!DOCTYPE svg PUBLIC "-//W3C//DTD SVG 1.1//EN" "http://www.w3.org/Graphics/SVG/1.1/DTD/svg11.dtd">
<svg version="1.1" id="Layer_1" xmlns="http://www.w3.org/2000/svg" xmlns:xlink="http://www.w3.org/1999/xlink" x="0px" y="0px"
	 width="28.453px" height="48px" viewBox="163.137 275.211 28.453 48" enable-background="new 163.137 275.211 28.453 48"
	 xml:space="preserve">
<g>
	<path d="M191.59,283.513v8.302c0,3.724-1.132,6.063-3.396,7.019c2.264,0.906,3.396,3.095,3.396,6.566v9.434
		c0,5.585-3.17,8.377-9.51,8.377h-9.434c-6.34,0.001-9.51-2.792-9.51-8.377V305.4c0-3.472,1.106-5.661,3.321-6.566
		c-2.214-0.955-3.321-3.295-3.321-7.019v-8.302c0-5.534,3.17-8.302,9.51-8.302h9.434C188.42,275.211,191.59,277.979,191.59,283.513z
		 M181.25,293.626v-8.755c0-0.653-0.151-1.119-0.453-1.396c-0.302-0.276-0.83-0.415-1.585-0.415h-3.698
		c-0.755,0-1.283,0.139-1.585,0.415c-0.302,0.277-0.453,0.743-0.453,1.396v8.755c0,0.654,0.151,1.12,0.453,1.396
		c0.302,0.277,0.83,0.415,1.585,0.415h3.698c0.755,0,1.283-0.138,1.585-0.415C181.099,294.747,181.25,294.281,181.25,293.626z
		 M181.25,313.476v-9.208c0-0.704-0.151-1.194-0.453-1.472c-0.302-0.275-0.83-0.415-1.585-0.415h-3.698
		c-0.755,0-1.283,0.14-1.585,0.415c-0.302,0.277-0.453,0.768-0.453,1.472v9.208c0,0.705,0.151,1.195,0.453,1.472
		c0.302,0.277,0.83,0.415,1.585,0.415h3.698c0.755,0,1.283-0.138,1.585-0.415C181.099,314.671,181.25,314.181,181.25,313.476z"/>
</g>
</svg>
