<?xml version="1.0" encoding="utf-8"?>
<!-- Generator: Adobe Illustrator 16.0.0, SVG Export Plug-In . SVG Version: 6.00 Build 0)  -->
<!DOCTYPE svg PUBLIC "-//W3C//DTD SVG 1.1//EN" "http://www.w3.org/Graphics/SVG/1.1/DTD/svg11.dtd">
<svg version="1.1" id="Layer_1" xmlns="http://www.w3.org/2000/svg" xmlns:xlink="http://www.w3.org/1999/xlink" x="0px" y="0px"
	 width="28.377px" height="48px" viewBox="163.223 276.089 28.377 48" enable-background="new 163.223 276.089 28.377 48"
	 xml:space="preserve">
<g>
	<path d="M172.808,276.089h9.207c6.39,0,9.585,2.768,9.585,8.302v31.321c0,5.585-3.195,8.378-9.585,8.378h-9.207
		c-6.391,0-9.585-2.793-9.585-8.378v-6.188h10.49v4.755c0,1.258,0.679,1.887,2.038,1.887h3.321c1.308,0,1.962-0.629,1.962-1.887
		v-9.133h-8.226c-6.391,0-9.585-2.766-9.585-8.301v-12.453C163.223,278.857,166.417,276.089,172.808,276.089z M175.826,297.75h5.208
		v-11.849c0-1.257-0.654-1.887-1.962-1.887h-3.246c-1.358,0-2.038,0.63-2.038,1.887v9.962c0,0.706,0.151,1.196,0.453,1.472
		C174.543,297.612,175.071,297.75,175.826,297.75z"/>
</g>
</svg>
